<svg width="25" height="24" viewBox="0 0 25 24" fill="none" xmlns="http://www.w3.org/2000/svg">
<path d="M20.259 9H11.3603C10.2682 9 9.38281 9.89543 9.38281 11V20C9.38281 21.1046 10.2682 22 11.3603 22H20.259C21.3511 22 22.2364 21.1046 22.2364 20V11C22.2364 9.89543 21.3511 9 20.259 9Z" stroke="white" stroke-width="2" stroke-linecap="round" stroke-linejoin="round"/>
<path d="M5.42783 15H4.43909C3.91463 15 3.41165 14.7893 3.0408 14.4142C2.66995 14.0391 2.46161 13.5304 2.46161 13V4C2.46161 3.46957 2.66995 2.96086 3.0408 2.58579C3.41165 2.21071 3.91463 2 4.43909 2H13.3378C13.8622 2 14.3652 2.21071 14.7361 2.58579C15.1069 2.96086 15.3152 3.46957 15.3152 4V5" stroke="white" stroke-width="2" stroke-linecap="round" stroke-linejoin="round"/>
</svg>
